HIERARCHY
ROOT joint_Root
{
	OFFSET 0.0 0.0 0.0
	CHANNELS 6 Xposition Yposition Zposition Zrotation Xrotation Yrotation 
	JOINT Hips
	{
		OFFSET -17.1583 93.1646 452.98
		CHANNELS 6 Xposition Yposition Zposition Zrotation Xrotation Yrotation 
		JOINT Spine
		{
			OFFSET 15.7357 0.0 0.0
			CHANNELS 6 Xposition Yposition Zposition Zrotation Xrotation Yrotation 
			JOINT Chest
			{
				OFFSET 8.98455 -0.406207 0.0
				CHANNELS 6 Xposition Yposition Zposition Zrotation Xrotation Yrotation 
				JOINT Neck
				{
					OFFSET 16.3773 0.0 0.0
					CHANNELS 6 Xposition Yposition Zposition Zrotation Xrotation Yrotation 
					JOINT Head
					{
						OFFSET 6.45672 0.0 0.0
						CHANNELS 6 Xposition Yposition Zposition Zrotation Xrotation Yrotation 
						End Site
						{
							OFFSET 0.0 0.0 0.0
						}
					}
				}
				JOINT Shoulder_L
				{
					OFFSET 12.9942 -0.242716 4.98039
					CHANNELS 6 Xposition Yposition Zposition Zrotation Xrotation Yrotation 
					JOINT UpperArm_L
					{
						OFFSET 5.34809 0.0 0.0
						CHANNELS 6 Xposition Yposition Zposition Zrotation Xrotation Yrotation 
						JOINT LowerArm_L
						{
							OFFSET 24.3286 1.87007e-05 0.0
							CHANNELS 6 Xposition Yposition Zposition Zrotation Xrotation Yrotation 
							JOINT Hand_L
							{
								OFFSET 22.2916 0.0 0.0
								CHANNELS 6 Xposition Yposition Zposition Zrotation Xrotation Yrotation 
								End Site
								{
									OFFSET 0.0 0.0 0.0
								}
							}
						}
					}
				}
				JOINT Shoulder_R
				{
					OFFSET 12.9945 -0.242716 -4.98039
					CHANNELS 6 Xposition Yposition Zposition Zrotation Xrotation Yrotation 
					JOINT UpperArm_R
					{
						OFFSET -5.34813 0.0 0.0
						CHANNELS 6 Xposition Yposition Zposition Zrotation Xrotation Yrotation 
						JOINT LowerArm_R
						{
							OFFSET -24.3289 0.000322201 0.0
							CHANNELS 6 Xposition Yposition Zposition Zrotation Xrotation Yrotation 
							JOINT Hand_R
							{
								OFFSET -22.2915 -0.000108084 0.0
								CHANNELS 6 Xposition Yposition Zposition Zrotation Xrotation Yrotation 
								End Site
								{
									OFFSET 0.0 0.0 0.0
								}
							}
						}
					}
				}
			}
		}
		JOINT UpperLeg_L
		{
			OFFSET -2.19248 -6.46944 0.0
			CHANNELS 6 Xposition Yposition Zposition Zrotation Xrotation Yrotation 
			JOINT LowerLeg_L
			{
				OFFSET 39.0811 0.0 -1.23785e-05
				CHANNELS 6 Xposition Yposition Zposition Zrotation Xrotation Yrotation 
				JOINT Foot_L
				{
					OFFSET 40.9854 0.0 -1.26872e-05
					CHANNELS 6 Xposition Yposition Zposition Zrotation Xrotation Yrotation 
					JOINT Toes_L
					{
						OFFSET 11.7543 0.0 0.0
						CHANNELS 6 Xposition Yposition Zposition Zrotation Xrotation Yrotation 
						End Site
						{
							OFFSET 0.0 0.0 0.0
						}
					}
				}
			}
		}
		JOINT UpperLeg_R
		{
			OFFSET -2.19251 6.46944 0.0
			CHANNELS 6 Xposition Yposition Zposition Zrotation Xrotation Yrotation 
			JOINT LowerLeg_R
			{
				OFFSET -39.0811 -0.00228153 -0.0401928
				CHANNELS 6 Xposition Yposition Zposition Zrotation Xrotation Yrotation 
				JOINT Foot_R
				{
					OFFSET -40.9854 0.0 0.0
					CHANNELS 6 Xposition Yposition Zposition Zrotation Xrotation Yrotation 
					JOINT Toes_R
					{
						OFFSET -11.7543 0.0 0.0
						CHANNELS 6 Xposition Yposition Zposition Zrotation Xrotation Yrotation 
						End Site
						{
							OFFSET 0.0 0.0 0.0
						}
					}
				}
			}
		}
	}
}
MOTION
Frames:	4
Frame Time:	0.0333333
0.000000 0.000000 0.000000 0.000000 0.000000 -0.000000 1.465570 89.358300 28.486100 -83.637900 1.998220 178.498000 15.735700 0.000005 -0.000001 48.464300 88.346800 -45.067800 8.984550 -0.406207 -0.000000 -5.208340 -2.574130 6.683070 16.377300 -0.000001 -0.000001 2.785800 4.115690 -2.774370 6.456720 -0.000001 -0.000000 9.482930 6.152720 -0.515508 12.994200 -0.242716 4.980390 -93.066400 8.998400 -71.093500 5.348090 -0.000007 -0.000001 -72.405400 -6.221390 8.484840 24.328600 0.000019 0.000005 22.291800 27.424500 -41.671900 22.291600 -0.000001 0.000005 46.124700 4.582420 15.214900 12.994500 -0.242716 -4.980390 88.518600 4.286460 -70.914100 -5.348130 -0.000001 -0.000004 -67.629900 -0.461411 3.311580 -24.328900 0.000322 -0.000009 -0.556097 -2.347530 -13.295900 -22.291500 -0.000108 -0.000004 43.523400 5.422020 -3.667400 -2.192480 -6.469440 -0.000000 -170.831000 -5.237090 -6.751390 39.081100 -0.000007 -0.000012 0.344929 -0.230956 56.194600 40.985400 -0.000006 -0.000013 -17.518400 12.439600 -24.950400 11.754300 -0.000000 0.000003 0.002442 0.072530 -13.635200 -2.192510 6.469440 -0.000001 -169.246000 -5.885180 155.358000 -39.081100 -0.002282 -0.040193 0.102079 -0.141474 34.925900 -40.985400 0.000008 0.000006 1.692150 -4.579930 -68.423100 -11.754300 -0.000006 -0.000006 -0.011583 0.282776 -5.081570
0.000000 0.000000 0.000000 0.000000 0.000000 -0.000000 1.556360 89.885000 24.380600 -83.550000 1.491050 179.604000 15.735700 0.000005 -0.000001 66.873500 88.211900 -63.489100 8.984550 -0.406207 -0.000000 -4.417070 -1.762960 6.705500 16.377300 -0.000001 -0.000001 2.624240 3.566390 -2.162350 6.456720 -0.000001 -0.000000 9.596250 5.117550 -0.305442 12.994200 -0.242716 4.980390 -92.852200 8.346860 -71.057600 5.348090 -0.000007 -0.000001 -72.566700 -6.321330 9.513090 24.328600 0.000019 0.000005 19.880100 28.222700 -37.402800 22.291600 -0.000001 0.000005 45.227900 4.606290 14.806000 12.994500 -0.242716 -4.980390 88.451800 4.512630 -71.041700 -5.348130 -0.000001 -0.000004 -69.215500 0.847524 1.509460 -24.328900 0.000322 -0.000009 -1.021490 -3.192210 -17.735600 -22.291500 -0.000108 -0.000004 43.747300 5.430710 -3.962890 -2.192480 -6.469440 -0.000000 -171.025000 -3.363810 -12.527400 39.081100 -0.000007 -0.000012 0.313863 -0.150696 64.352200 40.985400 -0.000006 -0.000013 -14.577100 11.937200 -30.822500 11.754300 -0.000000 0.000003 0.002381 0.066510 -13.879200 -2.192510 6.469440 -0.000001 -168.923000 -4.814960 160.017000 -39.081100 -0.002282 -0.040193 0.066739 -0.094592 33.850800 -40.985400 0.000008 0.000006 0.920339 -4.141550 -70.625000 -11.754300 -0.000006 -0.000006 -0.011254 0.280445 -5.176970
0.000000 0.000000 0.000000 0.000000 0.000000 -0.000000 1.384300 90.579800 20.412800 -84.496800 1.431160 -179.284000 15.735700 0.000005 -0.000001 85.537700 87.962100 -82.592800 8.984550 -0.406207 -0.000000 -3.680090 -0.610847 5.872250 16.377300 -0.000001 -0.000001 2.725980 3.047780 -1.544510 6.456720 -0.000001 -0.000000 9.607690 3.986120 0.166560 12.994200 -0.242716 4.980390 -92.619000 7.608360 -70.940700 5.348090 -0.000007 -0.000001 -71.972200 -6.871590 10.870800 24.328600 0.000019 0.000005 18.240200 27.857600 -35.194500 22.291600 -0.000001 0.000005 44.711200 4.614400 14.666300 12.994500 -0.242716 -4.980390 88.430100 4.606840 -71.158700 -5.348130 -0.000001 -0.000004 -70.440200 3.747850 -0.136980 -24.328900 0.000322 -0.000009 -1.265400 -3.121570 -22.063000 -22.291500 -0.000108 -0.000004 44.618500 5.444780 -4.453260 -2.192480 -6.469440 -0.000000 -172.741000 -1.781900 -17.441400 39.081100 -0.000007 -0.000012 0.218606 -0.085751 68.580600 40.985400 -0.000006 -0.000013 -10.373800 9.912840 -36.948800 11.754300 -0.000000 0.000003 0.002392 0.067369 -13.844400 -2.192510 6.469440 -0.000001 -169.993000 -3.695710 165.159000 -39.081100 -0.002282 -0.040193 0.003876 -0.000940 31.584100 -40.985400 0.000008 0.000006 -0.267476 -3.006750 -71.911600 -11.754300 -0.000006 -0.000006 -0.010736 0.276724 -5.329270
0.000000 0.000000 0.000000 0.000000 0.000000 -0.000000 1.053770 91.345300 16.639900 -85.860300 1.496730 -178.786000 15.735700 0.000005 -0.000001 97.829900 87.764500 -95.466200 8.984550 -0.406207 -0.000000 -3.340170 0.379862 4.739630 16.377300 -0.000001 -0.000001 2.999050 2.632010 -1.127010 6.456720 -0.000001 -0.000000 9.590290 3.148530 0.553026 12.994200 -0.242716 4.980390 -92.429400 6.967230 -70.721900 5.348090 -0.000007 -0.000001 -70.582400 -8.476370 12.555800 24.328600 0.000019 0.000005 17.791700 27.415500 -34.874700 22.291600 -0.000001 0.000005 44.438900 4.599210 14.928200 12.994500 -0.242716 -4.980390 88.521300 4.366900 -71.272700 -5.348130 -0.000001 -0.000004 -71.395300 6.703420 -1.965250 -24.328900 0.000322 -0.000009 -1.220200 -2.507380 -25.945900 -22.291500 -0.000108 -0.000004 45.077500 5.454140 -4.788740 -2.192480 -6.469440 -0.000000 -174.737000 -0.681501 -21.794700 39.081100 -0.000007 -0.000012 0.166636 -0.063307 69.195900 40.985400 -0.000006 -0.000013 -7.988180 5.430990 -43.647600 11.754300 -0.000000 0.000003 0.002461 0.075274 -13.523900 -2.192510 6.469440 -0.000001 -171.594000 -2.694600 170.067000 -39.081100 -0.002282 -0.040193 0.001362 0.003622 28.214800 -40.985400 0.000008 0.000006 -0.365268 -1.966120 -72.412800 -11.754300 -0.000006 -0.000006 -0.009806 0.269851 -5.610440
